<?xml version="1.0" encoding="UTF-8" standalone="no"?>
<!-- Svg Vector Icons : http://www.onlinewebfonts.com/icon -->

<svg
   xmlns:dc="http://purl.org/dc/elements/1.1/"
   xmlns:cc="http://creativecommons.org/ns#"
   xmlns:rdf="http://www.w3.org/1999/02/22-rdf-syntax-ns#"
   xmlns:svg="http://www.w3.org/2000/svg"
   xmlns="http://www.w3.org/2000/svg"
   xmlns:sodipodi="http://sodipodi.sourceforge.net/DTD/sodipodi-0.dtd"
   xmlns:inkscape="http://www.inkscape.org/namespaces/inkscape"
   version="1.1"
   viewBox="0 0 1000 1000"
   xml:space="preserve"
   id="svg32"
   sodipodi:docname="scheduleicon.svg"
   inkscape:version="0.92.2 5c3e80d, 2017-08-06">
   <defs id="defs36" />
     <g
     id="g30"
     transform="matrix(1.0204015,0,0,1.016093,-10.204015,-8.037296)"><g
       transform="matrix(0.1,0,0,-0.1,0,511)"
       id="g28"><path
         d="m 2126.3,5000.8 c -186.2,-68.5 -312.4,-188.3 -404.4,-389.4 -47.1,-98.4 -49.2,-130.5 -49.2,-564.9 0,-451.5 2.1,-462.2 55.6,-577.7 77,-166.9 171.2,-265.3 323.1,-342.3 263.2,-130.5 599.1,-66.3 796,149.8 162.6,181.9 173.3,226.8 173.3,770.3 0,449.3 -2.1,487.8 -47.1,582 -115.5,248.2 -353,402.3 -616.2,402.3 -81.3,-2.3 -186.2,-15.2 -231.1,-30.1 z"
         id="path4"
         inkscape:connector-curvature="0" /><path
         d="m 6763,5007.2 c -184,-53.5 -387.3,-261 -438.6,-451.5 -12.9,-53.5 -19.3,-265.3 -15,-560.6 6.4,-442.9 8.5,-479.3 55.6,-562.7 74.9,-143.4 169,-235.4 308.1,-306 109.1,-53.5 156.2,-64.2 284.6,-64.2 83.5,0 196.9,15 252.5,34.2 136.9,47.1 299.6,196.8 372.3,346.6 l 59.9,122 v 481.4 c 0,543.5 -10.7,588.4 -173.3,770.3 -124.1,136.9 -301.7,214 -490,211.8 -81.3,0.1 -179.8,-10.6 -216.1,-21.3 z"
         id="path6"
         inkscape:connector-curvature="0" /><path
         d="m 100,-147.3 v -4001.2 h 2516.3 c 2004.9,0 2512,6.4 2499.1,27.8 -8.6,12.9 -53.5,74.9 -98.4,137 -44.9,59.9 -115.5,173.3 -158.3,250.4 l -77,141.2 H 2783.2 784.7 V -992.4 1607.3 H 4657.5 8530.3 V 991 374.8 l 62.1,-23.5 c 87.7,-32.1 385.1,-211.8 513.5,-308.1 L 9215,-40.3 v 1947.1 1947.1 h -594.8 -594.8 l -23.6,-205.4 c -53.5,-453.6 -323.1,-783.1 -740.3,-911.5 -196.9,-57.8 -479.3,-47.1 -661.2,27.8 -400.1,164.8 -659,539.2 -659,956.4 v 132.7 H 4657.5 3373.7 v -156.2 c 0,-398 -276,-791.7 -656.9,-935 -171.2,-66.3 -445,-81.3 -624.8,-34.2 -451.5,115.5 -772.4,528.5 -772.4,990.7 V 3854 H 709.8 100 Z"
         id="path8"
         inkscape:connector-curvature="0" /><path
         d="M 3373.7,473.2 V 2.5 h 481.4 481.4 v 470.7 470.7 h -481.4 -481.4 z"
         id="path10"
         inkscape:connector-curvature="0" /><path
         d="M 5085.5,473.2 V 2.5 h 241.8 241.7 l 211.8,139.1 c 115.6,77 218.3,139.1 229,139.1 8.5,0 17.1,149.8 17.1,331.7 v 331.7 h -470.7 -470.7 z"
         id="path12"
         inkscape:connector-curvature="0" /><path
         d="M 6797.2,753.5 V 563.1 l 92,23.5 c 49.2,12.8 261,23.5 468.6,23.5 l 380.9,2.1 V 779.1 943.9 H 7268 6797.3 V 753.5 Z"
         id="path14"
         inkscape:connector-curvature="0" /><path
         d="M 7118.1,235.7 C 6187.3,141.6 5352.9,-489.6 5021.2,-1351.9 4882.1,-1711.4 4860.7,-1829 4862.9,-2287 c 0,-383 4.3,-434.3 57.8,-626.9 243.9,-905.1 928.6,-1589.8 1827.3,-1827.3 278.2,-72.7 755.3,-92 1044.2,-40.6 1367.3,235.4 2295.9,1536.3 2075.5,2901.4 -214,1315.9 -1427.2,2250.9 -2749.6,2116.1 z m 744.7,-682.5 c 552,-156.2 973.6,-511.4 1215.3,-1018.5 374.5,-783.1 175.5,-1711.8 -485.7,-2272.3 -188.3,-158.4 -511.4,-327.4 -757.5,-393.8 -252.5,-66.3 -680.4,-66.3 -930.8,0 -1442.1,387.3 -1914.9,2165.4 -851.5,3209.5 263.2,258.9 577.7,425.8 958.6,507.1 201.1,45 648.3,27.9 851.6,-32 z"
         id="path16"
         inkscape:connector-curvature="0" /><path
         d="m 8038.2,-1775.6 c -528.5,-269.6 -549.9,-280.3 -674,-278.2 -94.2,2.1 -147.7,-8.6 -199,-40.7 -205.4,-126.3 -205.4,-430.1 0,-556.3 151.9,-92 374.4,-30 445,124.1 27.8,62.1 100.6,104.9 614.1,370.2 320.9,164.8 599.1,320.9 616.2,346.6 53.5,77.1 40.7,181.9 -30,252.5 -109,109.2 -160.3,94.2 -772.3,-218.2 z"
         id="path18"
         inkscape:connector-curvature="0" /><path
         d="m 1683.4,-992.5 v -481.4 h 470.7 470.7 v 481.4 481.5 h -470.7 -470.7 z"
         id="path20"
         inkscape:connector-curvature="0" /><path
         d="m 3382.3,-538.9 c -4.3,-15 -6.4,-228.9 -4.3,-475 l 6.4,-449.3 477.1,-6.4 475,-4.3 v 481.4 481.5 h -470.7 c -363.7,0 -475,-6.5 -483.5,-27.9 z"
         id="path22"
         inkscape:connector-curvature="0" /><path
         d="m 1683.4,-2447.5 v -481.4 h 470.7 470.7 v 481.4 481.4 h -470.7 -470.7 z"
         id="path24"
         inkscape:connector-curvature="0" /><path
         d="m 3388.7,-1978.9 c -8.6,-8.6 -15,-226.8 -15,-483.6 v -466.4 h 481.4 481.4 l -4.3,477.1 -6.4,475 -462.2,6.4 c -252.4,2.2 -466.4,-2 -474.9,-8.5 z"
         id="path26"
         inkscape:connector-curvature="0" /></g></g></svg>
