<?xml version="1.0" encoding="UTF-8"?>
<!-- Created with Inkscape (http://www.inkscape.org/) -->
<svg version="1.1" viewBox="0 0 1024 1024" xmlns="http://www.w3.org/2000/svg" xmlns:cc="http://creativecommons.org/ns#" xmlns:dc="http://purl.org/dc/elements/1.1/" xmlns:rdf="http://www.w3.org/1999/02/22-rdf-syntax-ns#" fill="white">
 <metadata>
  <rdf:RDF>
   <cc:Work rdf:about="">
    <dc:format>image/svg+xml</dc:format>
    <dc:type rdf:resource="http://purl.org/dc/dcmitype/StillImage"/>
    <dc:title/>
   </cc:Work>
  </rdf:RDF>
 </metadata>
 <g transform="matrix(9.0838 0 0 9.0943 -400.94 -1089.7)">
  <path d="m65.909 231.98c-3.1651-0.42966-6.8604-1.5897-9.1682-2.878-4.9549-2.7661-9.1291-7.7088-10.834-12.829-1.6261-4.8826-1.5434-2.9724-1.6556-38.237-0.10701-33.618-0.05064-35.86 1.0054-39.998 1.1231-4.4011 3.256-8.1404 6.4295-11.272 3.2075-3.1651 7.1814-5.2174 12.343-6.3745 2.4933-0.55892 2.7871-0.56346 36.513-0.56346 33.725 0 34.019 5e-3 36.512 0.56346 5.3506 1.1994 9.226 3.2551 12.54 6.6516 3.2893 3.3716 5.1029 6.5724 6.2373 11.008 1.0392 4.063 1.1044 6.6745 0.99865 39.986-0.0909 28.643-0.14828 32.243-0.54475 34.187-1.8599 9.1166-7.5704 15.775-15.927 18.57-4.7662 1.5942-5.3722 1.6181-40.161 1.5881-25.556-0.022-32.06-0.098-34.288-0.40054zm40.19-6.8434c29.875-3.5428 49.643-32.159 42.312-61.251-4.1496-16.468-16.637-29.714-32.916-34.917-17.544-5.6067-36.682-0.95062-49.829 12.122-11.759 11.694-16.837 28.49-13.54 44.789 5.0598 25.017 28.75 42.248 53.973 39.256zm-6.1644-3.4274c-0.23247-0.23247-0.32077-1.1713-0.29026-3.086 0.02413-1.5136 0.05718-2.8412 0.07347-2.9503 0.01627-0.10914 0.44633-0.19844 0.95565-0.19844h0.92604v3.175c0 1.7462-0.0893 3.1841-0.19844 3.1952-0.10914 0.0111-0.40856 0.0604-0.66539 0.10946-0.25682 0.0491-0.61731-0.0611-0.80107-0.2449zm-31.884-13.167c-0.61836-0.61836-0.29368-1.2014 1.8078-3.2465l2.1253-2.0682 0.6528 0.61327c0.35904 0.33731 0.6528 0.66573 0.6528 0.72984 0 0.0641-0.91362 1.0554-2.0303 2.2028-2.0089 2.0644-2.5917 2.3856-3.2085 1.7688zm61.964-1.5793c-1.0759-1.0432-1.9562-2.0964-1.9562-2.3402 0-0.2439 0.23539-0.65647 0.52308-0.91683 0.50992-0.46147 0.57645-0.42143 2.6458 1.5924 2.0991 2.0427 2.4235 2.6257 1.8053 3.244-0.57848 0.57847-1.0438 0.33498-3.018-1.5793zm-32.648-71.556s2.4969-3.6974 3.175-3.787l3.175 3.787 0.19731 33.237c0.10852 0 5.3272-5.1288 11.597-11.397l11.4-11.397 2.0323-0.28517c1.1177-0.15685 2.1055-0.21191 2.1951-0.12237 0.0896 0.0896 0.026 1.0902-0.1413 2.2237l-0.30411 2.0609-11.701 11.708-11.701 11.708 1.7187 4e-3c0.94527 2e-3 8.4033 5.3e-4 16.573-4e-3 9.271-5e-3 15.116 0.0909 15.55 0.25585 0 0 3.5946 2.3664 3.5946 2.6729l-3.5597 2.7597-21.508 0.0707-21.925 0.0152c-0.34563-15.218-0.36711-28.194-0.36711-43.509zm-42.553 41.249c-0.14374-0.2742-0.15176-0.72436-0.01918-1.0756 0.22131-0.58627 0.31569-0.60183 3.2099-0.52917l2.9819 0.0749v1.8521l-2.9627 0.0747c-2.6187 0.066-2.9914 0.0199-3.2099-0.39688zm15.006-29.886c-2.0644-2.0089-2.3856-2.5917-1.7688-3.2085 0.61836-0.61836 1.2014-0.29368 3.2465 1.8078l2.0682 2.1253-0.61328 0.65281c-0.3373 0.35904-0.66573 0.6528-0.72983 0.6528-0.06411 0-1.0554-0.91362-2.2028-2.0303z" stroke-width=".26458"/>
 </g>
</svg>
